<svg xmlns="http://www.w3.org/2000/svg" viewBox="0 0 48 48">
  <rect width="48" height="48" rx="10" fill="#FAF6F0"/>
  <g fill="#E07A5F" transform="translate(3.6 3.6) scale(0.85)">
    <ellipse cx="12.7" cy="15.1" rx="4.8" ry="5.8" transform="rotate(-25 12.7 15.1)"/>
    <ellipse cx="24" cy="10.8" rx="5" ry="6"/>
    <ellipse cx="35.3" cy="15.1" rx="4.8" ry="5.8" transform="rotate(25 35.3 15.1)"/>
    <g transform="translate(10.6 20.1) scale(1.12)">
      <path d="M12 21.35l-1.45-1.32C5.4 15.36 2 12.28 2 8.5 2 5.42 4.42 3 7.5 3c1.74 0 3.41.81 4.5 2.09C13.09 3.81 14.76 3 16.5 3 19.58 3 22 5.42 22 8.5c0 3.78-3.4 6.86-8.55 11.54L12 21.35z"/>
    </g>
  </g>
</svg>
